<?xml version="1.0" encoding="UTF-8"?>
<!DOCTYPE svg PUBLIC "-//W3C//DTD SVG 1.1//EN" "http://www.w3.org/Graphics/SVG/1.1/DTD/svg11.dtd">
<svg xmlns="http://www.w3.org/2000/svg" version="1.1" width="170px" height="66px" style="shape-rendering:geometricPrecision; text-rendering:geometricPrecision; image-rendering:optimizeQuality; fill-rule:evenodd; clip-rule:evenodd" xmlns:xlink="http://www.w3.org/1999/xlink">
<g><path style="opacity:0.834" fill="#f05c61" d="M 15.5,40.5 C 1.66131,34.15 -1.67203,24.3167 5.5,11C 8.70238,9.51674 12.0357,9.1834 15.5,10C 14.1667,10.3333 12.8333,10.6667 11.5,11C 13.1012,11.2734 14.6012,11.7734 16,12.5C 16.3333,11.1667 16.6667,9.83333 17,8.5C 20.421,7.31366 23.2543,5.31366 25.5,2.5C 29.3993,3.81854 30.3993,6.31854 28.5,10C 35.3525,9.06213 39.0192,11.8955 39.5,18.5C 42.1667,18.5 44.8333,18.5 47.5,18.5C 48.6898,23.5713 50.1898,28.5713 52,33.5C 53.5808,28.6728 55.0808,23.8395 56.5,19C 60.8333,18.6667 65.1667,18.3333 69.5,18C 68.4546,14.619 69.788,12.7857 73.5,12.5C 74.7716,12.5698 75.9383,12.9032 77,13.5C 77.4935,15.1341 77.6602,16.8008 77.5,18.5C 89.8104,17.9585 93.6437,23.2918 89,34.5C 85.5563,37.8826 81.3896,39.2159 76.5,38.5C 76.5,39.8333 76.5,41.1667 76.5,42.5C 72.1756,42.9272 67.8422,43.2605 63.5,43.5C 63.6664,35.4931 63.4997,27.4931 63,19.5C 61.0604,27.096 58.8938,34.596 56.5,42C 53.4459,42.8214 50.4459,42.6548 47.5,41.5C 44.9013,34.2039 42.4013,26.8706 40,19.5C 35.5333,34.9773 25.3666,43.4773 9.5,45C 11.7472,43.7225 13.7472,42.2225 15.5,40.5 Z M 15.5,40.5 C 12.1665,35.3328 9.49985,29.8328 7.5,24C 9.25513,16.4302 13.4218,14.5969 20,18.5C 20.7203,16.8876 20.5536,15.3876 19.5,14C 21.2436,12.659 23.0769,11.4923 25,10.5C 25.8333,10.6667 26.6667,10.8333 27.5,11C 24.68,11.7355 22.68,13.4022 21.5,16C 24.7802,16.056 27.7802,16.8893 30.5,18.5C 31.565,20.8528 31.3983,23.1861 30,25.5C 26.9849,32.3471 22.1516,37.3471 15.5,40.5 Z M 77.5,24.5 C 82.983,23.8069 84.983,25.9735 83.5,31C 81.5273,31.4955 79.5273,31.6621 77.5,31.5C 77.5,29.1667 77.5,26.8333 77.5,24.5 Z"/></g>
<g><path style="opacity:0.742" fill="#f05c61" d="M 25.5,41.5 C 32.736,40.4107 38.736,42.5773 43.5,48C 50.6189,48.5805 52.2855,51.9138 48.5,58C 48.9504,59.2853 49.6171,60.452 50.5,61.5C 47.2471,63.1123 45.0804,62.1123 44,58.5C 43.51,59.7932 43.3433,61.1266 43.5,62.5C 42.1667,62.5 40.8333,62.5 39.5,62.5C 39.1975,57.57 39.5308,52.7367 40.5,48C 34.4713,42.2594 28.3046,42.0927 22,47.5C 22.6548,52.4715 23.4882,57.4715 24.5,62.5C 22.8333,62.5 21.1667,62.5 19.5,62.5C 17.5912,50.664 15.9246,50.9973 14.5,63.5C 13.0222,63.762 11.6888,63.4287 10.5,62.5C 9.33333,60.1667 8.16667,57.8333 7,55.5C 5.79777,57.6775 5.29777,60.0108 5.5,62.5C 3.83333,62.5 2.16667,62.5 0.5,62.5C 0.86557,57.7036 1.86557,53.0369 3.5,48.5C 5.16667,47.1667 6.83333,47.1667 8.5,48.5C 9.41434,50.6641 10.581,52.6641 12,54.5C 15.101,48.5629 19.601,44.2296 25.5,41.5 Z M 43.5,52.5 C 44.2891,52.7828 44.9558,53.2828 45.5,54C 44.184,54.5281 43.5173,54.0281 43.5,52.5 Z M 31.5,55.5 C 32.7733,56.0768 32.7733,56.7435 31.5,57.5C 30.537,57.0302 30.537,56.3635 31.5,55.5 Z"/></g>
<g><path style="opacity:0.752" fill="#f05c61" d="M 169.5,58.5 C 169.5,59.8333 169.5,61.1667 169.5,62.5C 167.325,62.3178 165.325,61.6511 163.5,60.5C 160.358,62.1187 157.025,62.7854 153.5,62.5C 153.66,60.8008 153.494,59.1341 153,57.5C 152.727,59.3289 151.893,60.8289 150.5,62C 147.854,62.4974 145.187,62.6641 142.5,62.5C 142.5,57.8333 142.5,53.1667 142.5,48.5C 144.199,48.6602 145.866,48.4935 147.5,48C 140.781,42.0224 134.114,42.0224 127.5,48C 128.894,52.0717 130.06,56.2384 131,60.5C 131.499,56.5138 131.666,52.5138 131.5,48.5C 134.833,48.5 138.167,48.5 141.5,48.5C 141.5,49.5 141.5,50.5 141.5,51.5C 139.396,51.2011 137.396,51.5344 135.5,52.5C 137.045,53.4519 138.712,53.7852 140.5,53.5C 140.5,54.5 140.5,55.5 140.5,56.5C 138.833,56.5 137.167,56.5 135.5,56.5C 135.5,57.5 135.5,58.5 135.5,59.5C 137.5,59.5 139.5,59.5 141.5,59.5C 141.5,60.5 141.5,61.5 141.5,62.5C 136.167,62.5 130.833,62.5 125.5,62.5C 124.378,49.6116 123.045,49.945 121.5,63.5C 116.964,62.8012 114.13,60.1345 113,55.5C 112.338,57.8127 111.838,60.146 111.5,62.5C 109.833,62.5 108.167,62.5 106.5,62.5C 107.291,57.503 108.624,52.6697 110.5,48C 111.833,47.3333 113.167,47.3333 114.5,48C 115.708,50.2503 117.041,52.417 118.5,54.5C 124.313,42.5876 133.313,39.0876 145.5,44C 148.795,46.6182 151.295,49.7848 153,53.5C 153.494,51.8659 153.66,50.1992 153.5,48.5C 154.833,48.5 156.167,48.5 157.5,48.5C 157.334,52.5138 157.501,56.5138 158,60.5C 159.502,56.1622 161.502,52.1622 164,48.5C 166.498,51.5174 168.331,54.8507 169.5,58.5 Z M 145.5,51.5 C 149.473,52.0755 150.473,54.2421 148.5,58C 147.552,58.4828 146.552,58.6495 145.5,58.5C 145.5,56.1667 145.5,53.8333 145.5,51.5 Z"/></g>
<g><path style="opacity:0.758" fill="#f05c61" d="M 30.5,48.5 C 31.5,48.5 32.5,48.5 33.5,48.5C 35.0319,53.0974 36.3652,57.764 37.5,62.5C 35.3337,62.4211 33.3337,61.7545 31.5,60.5C 30.1667,61.1667 28.8333,61.8333 27.5,62.5C 26.8333,62.1667 26.1667,61.8333 25.5,61.5C 27.4574,57.2563 29.1241,52.923 30.5,48.5 Z M 31.5,55.5 C 30.537,56.3635 30.537,57.0302 31.5,57.5C 32.7733,56.7435 32.7733,56.0768 31.5,55.5 Z"/></g>
<g><path style="opacity:0.771" fill="#f05c61" d="M 51.5,48.5 C 54.5184,48.3354 57.5184,48.502 60.5,49C 63.113,51.7953 63.113,54.6286 60.5,57.5C 61.1667,58.8333 61.8333,60.1667 62.5,61.5C 61.277,62.6139 59.9437,62.7805 58.5,62C 56.3323,57.3009 55.3323,57.4676 55.5,62.5C 54.1667,62.5 52.8333,62.5 51.5,62.5C 51.5,57.8333 51.5,53.1667 51.5,48.5 Z M 55.5,51.5 C 56.5,51.5 57.5,51.5 58.5,51.5C 58.5,52.5 58.5,53.5 58.5,54.5C 57.5,54.5 56.5,54.5 55.5,54.5C 55.5,53.5 55.5,52.5 55.5,51.5 Z"/></g>
<g><path style="opacity:0.946" fill="#f05c61" d="M 64.5,48.5 C 65.5,48.5 66.5,48.5 67.5,48.5C 67.5,53.1667 67.5,57.8333 67.5,62.5C 66.5,62.5 65.5,62.5 64.5,62.5C 64.5,57.8333 64.5,53.1667 64.5,48.5 Z"/></g>
<g><path style="opacity:0.765" fill="#f05c61" d="M 80.5,60.5 C 80.38,61.5862 79.7133,62.2528 78.5,62.5C 77.1667,61.8333 75.8333,61.1667 74.5,60.5C 72.6663,61.7545 70.6663,62.4211 68.5,62.5C 69.5257,57.4252 71.5257,52.7585 74.5,48.5C 77.0748,52.2322 79.0748,56.2322 80.5,60.5 Z M 73.5,55.5 C 74.2891,55.7828 74.9558,56.2828 75.5,57C 74.184,57.5281 73.5173,57.0281 73.5,55.5 Z"/></g>
<g><path style="opacity:0.738" fill="#f05c61" d="M 80.5,60.5 C 80.0431,56.4161 80.7098,52.5828 82.5,49C 86.7289,47.5024 89.7289,48.6691 91.5,52.5C 89.2287,53.3635 86.8954,53.3635 84.5,52.5C 84.3379,54.5273 84.5045,56.5273 85,58.5C 85.8928,59.7112 86.7261,59.7112 87.5,58.5C 86.1468,57.4763 85.4802,56.143 85.5,54.5C 87.5,54.5 89.5,54.5 91.5,54.5C 91.2938,63.1015 87.6271,65.1015 80.5,60.5 Z"/></g>
<g><path style="opacity:0.811" fill="#f05c61" d="M 93.5,48.5 C 96.5,48.5 99.5,48.5 102.5,48.5C 102.5,49.5 102.5,50.5 102.5,51.5C 94.5,52.1667 94.5,52.8333 102.5,53.5C 102.5,54.8333 102.5,56.1667 102.5,57.5C 94.5,58.1667 94.5,58.8333 102.5,59.5C 102.5,60.5 102.5,61.5 102.5,62.5C 99.5,62.5 96.5,62.5 93.5,62.5C 93.5,57.8333 93.5,53.1667 93.5,48.5 Z"/></g>
</svg>
