<svg xmlns="http://www.w3.org/2000/svg" xmlns:xlink="http://www.w3.org/1999/xlink" viewBox="0 0 825.19 448.99"><defs><style>.cls-1{fill:none;}.cls-2{clip-path:url(#clip-path);}.cls-3{fill:#ed1b36;}.cls-4{fill:#04686d;}.cls-5{fill:#f5f9ec;}.cls-6,.cls-7{fill:#fff;}.cls-6{stroke:#fff;stroke-miterlimit:10;stroke-width:1.41px;}</style><clipPath id="clip-path" transform="translate(82.92 66.87)"><rect class="cls-1" width="629.29" height="307.98" rx="26.97"/></clipPath></defs><g id="Layer_2" data-name="Layer 2"><g id="Layer_1-2" data-name="Layer 1"><g class="cls-2"><path class="cls-3" d="M702.85,382.12h-547A39.42,39.42,0,0,1,116.4,342.7V-27.44a39.42,39.42,0,0,1,39.42-39.43h547a39.42,39.42,0,0,1,39.42,39.43V342.7a39.42,39.42,0,0,1-39.42,39.42" transform="translate(82.92 66.87)"/><path class="cls-4" d="M151.57,382.12H55.43c-17.27,0-31.28-14.51-31.28-32.41V-34.45c0-17.91,14-32.42,31.28-32.42h296A30.77,30.77,0,0,0,330-58.09C64,199.4,298,222.08,175.27,370.87a30.73,30.73,0,0,1-23.7,11.25" transform="translate(82.92 66.87)"/><path class="cls-4" d="M47.83,382.12H-50.82a32.25,32.25,0,0,1-32.1-32.41V-34.45a32.26,32.26,0,0,1,32.1-32.42h303.7a32,32,0,0,0-22,8.78c-273,257.49-32.77,280.17-158.76,429a31.85,31.85,0,0,1-24.32,11.25" transform="translate(82.92 66.87)"/></g><path class="cls-5" d="M343.14,269.07V253h2.16l4.84,8.13a46.91,46.91,0,0,1,2.7,5.22l.07,0c-.18-2.15-.23-4.1-.23-6.61V253h1.85v16.07h-2l-4.82-8.16a46.94,46.94,0,0,1-2.81-5.36l-.07,0c.11,2,.14,4,.14,6.63v6.87Z" transform="translate(82.92 66.87)"/><path class="cls-5" d="M367.72,263.2c0,4.27-2.81,6.13-5.42,6.13-2.93,0-5.22-2.29-5.22-5.94,0-3.83,2.4-6.1,5.4-6.1S367.72,259.7,367.72,263.2Zm-8.62.12c0,2.53,1.35,4.44,3.29,4.44s3.3-1.89,3.3-4.49c0-1.95-.92-4.41-3.26-4.41S359.1,261.15,359.1,263.32Z" transform="translate(82.92 66.87)"/><path class="cls-5" d="M378.64,255.52h0L376.05,257l-.38-1.6,3.2-1.81h1.68v15.5h-1.91Z" transform="translate(82.92 66.87)"/><path class="cls-5" d="M404.12,262c-.11-2.24-.25-5-.25-6.94h0c-.54,1.86-1.15,3.89-1.92,6.11L399.24,269h-1.49l-2.47-7.65c-.72-2.29-1.31-4.34-1.73-6.25h-.05c-.05,2-.16,4.68-.29,7.11l-.41,6.89h-1.87L392,253h2.5l2.59,7.77c.63,2,1.12,3.75,1.53,5.41h0c.41-1.62,1-3.38,1.62-5.41L403,253h2.5l.94,16.07h-1.93Z" transform="translate(82.92 66.87)"/><path class="cls-5" d="M417.13,266.3a20.9,20.9,0,0,0,.16,2.77h-1.78l-.16-1.45h-.06a4,4,0,0,1-3.33,1.71,3.19,3.19,0,0,1-3.33-3.31c0-2.79,2.34-4.32,6.54-4.3v-.23c0-.93-.24-2.68-2.47-2.65a5,5,0,0,0-2.86.86l-.45-1.41a6.72,6.72,0,0,1,3.6-1c3.33,0,4.14,2.41,4.14,4.7Zm-1.91-3.12c-2.16-.05-4.61.36-4.61,2.6a1.78,1.78,0,0,0,1.84,2,2.77,2.77,0,0,0,2.68-1.93,2.43,2.43,0,0,0,.09-.67Z" transform="translate(82.92 66.87)"/><path class="cls-5" d="M422.64,254.76v2.76h2.83v1.6h-2.83v6.23c0,1.43.38,2.24,1.48,2.24a3.4,3.4,0,0,0,1.15-.14l.09,1.6a5.22,5.22,0,0,1-1.76.28,2.72,2.72,0,0,1-2.13-.88,4.64,4.64,0,0,1-.77-3v-6.3H419v-1.6h1.69v-2.14Z" transform="translate(82.92 66.87)"/><path class="cls-5" d="M427.69,261.13c0-1.36,0-2.53-.09-3.61h1.73l.09,2.29h.07a3.33,3.33,0,0,1,3-2.52,3.1,3.1,0,0,1,.54,0v2a3.55,3.55,0,0,0-.68,0c-1.39,0-2.38,1.1-2.65,2.67a6,6,0,0,0-.07,1v6.15h-2Z" transform="translate(82.92 66.87)"/><path class="cls-5" d="M437.34,254.28a1.22,1.22,0,0,1-1.26,1.29,1.21,1.21,0,0,1-1.2-1.29,1.25,1.25,0,0,1,1.24-1.31A1.23,1.23,0,0,1,437.34,254.28Zm-2.21,14.79V257.52h2v11.55Z" transform="translate(82.92 66.87)"/><path class="cls-5" d="M440.39,260.65c0-1.22,0-2.17-.09-3.13H442l.1,1.89h.06a3.74,3.74,0,0,1,3.44-2.12,3.22,3.22,0,0,1,3.06,2.31h.05a4.51,4.51,0,0,1,1.24-1.5,3.53,3.53,0,0,1,2.38-.81c1.47,0,3.6,1,3.6,5v6.77H454v-6.51c0-2.24-.79-3.56-2.36-3.56a2.64,2.64,0,0,0-2.37,1.89,3.8,3.8,0,0,0-.15,1.05v7.13h-1.94v-6.91c0-1.84-.76-3.16-2.27-3.16a2.77,2.77,0,0,0-2.45,2.1,2.82,2.82,0,0,0-.16,1v6.94h-1.94Z" transform="translate(82.92 66.87)"/><path class="cls-5" d="M469,263.2c0,4.27-2.82,6.13-5.43,6.13-2.92,0-5.22-2.29-5.22-5.94,0-3.83,2.41-6.1,5.4-6.1S469,259.7,469,263.2Zm-8.62.12c0,2.53,1.35,4.44,3.28,4.44s3.31-1.89,3.31-4.49c0-1.95-.92-4.41-3.26-4.41S460.38,261.15,460.38,263.32Z" transform="translate(82.92 66.87)"/><path class="cls-5" d="M471.48,260.65c0-1.22,0-2.17-.09-3.13h1.76l.11,1.91h.05a4,4,0,0,1,3.6-2.14c1.5,0,3.84.95,3.84,4.91v6.87h-2v-6.65c0-1.86-.65-3.42-2.52-3.42a2.89,2.89,0,0,0-2.65,2.15,3.17,3.17,0,0,0-.14,1v6.94h-2Z" transform="translate(82.92 66.87)"/><path class="cls-5" d="M486.16,254.28a1.21,1.21,0,0,1-1.26,1.29,1.2,1.2,0,0,1-1.19-1.29A1.25,1.25,0,0,1,485,253,1.22,1.22,0,0,1,486.16,254.28ZM484,269.07V257.52h2v11.55Z" transform="translate(82.92 66.87)"/><path class="cls-5" d="M496.87,266.3a20.9,20.9,0,0,0,.16,2.77h-1.78l-.16-1.45H495a4,4,0,0,1-3.33,1.71,3.2,3.2,0,0,1-3.34-3.31c0-2.79,2.35-4.32,6.55-4.3v-.23c0-.93-.24-2.68-2.47-2.65a5,5,0,0,0-2.86.86l-.45-1.41a6.72,6.72,0,0,1,3.6-1c3.33,0,4.14,2.41,4.14,4.7ZM495,263.18c-2.16-.05-4.61.36-4.61,2.6a1.78,1.78,0,0,0,1.84,2,2.77,2.77,0,0,0,2.68-1.93,2.43,2.43,0,0,0,.09-.67Z" transform="translate(82.92 66.87)"/><path class="cls-5" d="M500.05,252.13h2v16.94h-2Z" transform="translate(82.92 66.87)"/><path class="cls-5" d="M520.77,268.57a9.16,9.16,0,0,1-4,.76c-4.28,0-7.47-2.86-7.47-8.15,0-5.06,3.21-8.45,7.92-8.45a7.75,7.75,0,0,1,3.6.72l-.5,1.69a6.6,6.6,0,0,0-3-.67c-3.56,0-5.92,2.41-5.92,6.63,0,4,2.13,6.47,5.8,6.47a7.42,7.42,0,0,0,3.22-.67Z" transform="translate(82.92 66.87)"/><path class="cls-5" d="M532.8,263.2c0,4.27-2.82,6.13-5.43,6.13-2.92,0-5.22-2.29-5.22-5.94,0-3.83,2.41-6.1,5.4-6.1S532.8,259.7,532.8,263.2Zm-8.62.12c0,2.53,1.35,4.44,3.28,4.44s3.31-1.89,3.31-4.49c0-1.95-.92-4.41-3.26-4.41S524.18,261.15,524.18,263.32Z" transform="translate(82.92 66.87)"/><path class="cls-5" d="M535.28,260.65c0-1.22,0-2.17-.09-3.13h1.73l.1,1.89h.06a3.74,3.74,0,0,1,3.44-2.12,3.22,3.22,0,0,1,3.06,2.31h0a4.51,4.51,0,0,1,1.24-1.5,3.53,3.53,0,0,1,2.38-.81c1.47,0,3.6,1,3.6,5v6.77h-1.93v-6.51c0-2.24-.79-3.56-2.36-3.56a2.64,2.64,0,0,0-2.37,1.89,3.8,3.8,0,0,0-.15,1.05v7.13H542.1v-6.91c0-1.84-.76-3.16-2.27-3.16a2.77,2.77,0,0,0-2.45,2.1,2.82,2.82,0,0,0-.16,1v6.94h-1.94Z" transform="translate(82.92 66.87)"/><path class="cls-5" d="M554,261.29c0-1.48,0-2.67-.09-3.77h1.76l.11,2h.05a4.17,4.17,0,0,1,3.86-2.22c2.66,0,4.64,2.36,4.64,5.84,0,4.15-2.41,6.2-5,6.2a3.74,3.74,0,0,1-3.35-1.81h0v6.28h-2Zm2,3.08a3.34,3.34,0,0,0,.09.86,3.1,3.1,0,0,0,3,2.46c2.09,0,3.31-1.82,3.31-4.46,0-2.29-1.15-4.27-3.24-4.27a3.17,3.17,0,0,0-3,2.58,3.88,3.88,0,0,0-.13.83Z" transform="translate(82.92 66.87)"/><path class="cls-5" d="M574.47,266.3a20.9,20.9,0,0,0,.16,2.77h-1.78l-.15-1.45h-.07a4,4,0,0,1-3.33,1.71A3.19,3.19,0,0,1,566,266c0-2.79,2.34-4.32,6.55-4.3v-.23c0-.93-.25-2.68-2.48-2.65a5,5,0,0,0-2.86.86l-.45-1.41a6.72,6.72,0,0,1,3.6-1c3.33,0,4.14,2.41,4.14,4.7Zm-1.91-3.12c-2.16-.05-4.61.36-4.61,2.6a1.78,1.78,0,0,0,1.84,2,2.76,2.76,0,0,0,2.68-1.93,2.43,2.43,0,0,0,.09-.67Z" transform="translate(82.92 66.87)"/><path class="cls-5" d="M577.66,260.65c0-1.22,0-2.17-.09-3.13h1.75l.12,1.91h0a4,4,0,0,1,3.6-2.14c1.51,0,3.85.95,3.85,4.91v6.87h-2v-6.65c0-1.86-.65-3.42-2.52-3.42a2.9,2.9,0,0,0-2.66,2.15,3.19,3.19,0,0,0-.13,1v6.94h-2Z" transform="translate(82.92 66.87)"/><path class="cls-5" d="M590.58,257.52l2.37,6.83c.27.76.54,1.67.72,2.36h0c.2-.69.43-1.57.7-2.41l2.16-6.78h2.09l-3,8.24c-1.42,4-2.38,6-3.74,7.23a5.5,5.5,0,0,1-2.42,1.33l-.5-1.74a5,5,0,0,0,1.73-1,6.66,6.66,0,0,0,1.67-2.33,1.71,1.71,0,0,0,.16-.5,1.62,1.62,0,0,0-.16-.56l-4-10.64Z" transform="translate(82.92 66.87)"/><path class="cls-6" d="M211.82,69.72h1.39a.91.91,0,0,1,.92.71l42.26,92.7c.26.52.49,1,.7,1.51s.38,1,.54,1.37c.15-.42.33-.87.54-1.37s.43-1,.69-1.51l42.26-92.7a1,1,0,0,1,1.08-.71h1.24l-45,98.62h-1.54Z" transform="translate(82.92 66.87)"/><path class="cls-6" d="M323,168.34h-1.42V92.49H323Z" transform="translate(82.92 66.87)"/><path class="cls-6" d="M357.65,135.83v32.51h-1.42V92.49H375q13.57,0,20.85,5.36t7.26,16.31a18.83,18.83,0,0,1-2,8.7,20.36,20.36,0,0,1-5.79,6.85,28.48,28.48,0,0,1-8.89,4.5A37.9,37.9,0,0,1,375,135.83Zm0-1.08H375a35.48,35.48,0,0,0,11-1.6,26,26,0,0,0,8.39-4.39,19.67,19.67,0,0,0,5.37-6.53,17.5,17.5,0,0,0,1.9-8.07q0-10.12-6.67-15.36t-20-5.23H357.65Z" transform="translate(82.92 66.87)"/><path class="cls-7" d="M211.35,232.9l5.13-45.77h.58l14.55,37.56L246,187.13h.57l5.15,45.77h-3.51l-3.53-32.73L232.05,232.9h-.92l-12.81-33-3.51,33Z" transform="translate(82.92 66.87)"/><path class="cls-7" d="M284.61,199.05V232.9h-3.36v-5.82a16,16,0,0,1-4.81,5,10.7,10.7,0,0,1-5.83,1.68q-5.62,0-9.6-5.21a20.29,20.29,0,0,1-4-12.68,19.84,19.84,0,0,1,4-12.51c2.67-3.46,5.9-5.19,9.66-5.19a10.37,10.37,0,0,1,5.9,1.77,15.16,15.16,0,0,1,4.64,5.32v-6.22ZM271,202.37a8.61,8.61,0,0,0-5.25,1.79,12.34,12.34,0,0,0-3.83,5,17.13,17.13,0,0,0,0,13.68,12.45,12.45,0,0,0,3.86,5.08,8.48,8.48,0,0,0,5.19,1.82,8.94,8.94,0,0,0,5.3-1.8,11.7,11.7,0,0,0,3.85-4.89,17,17,0,0,0,1.35-6.93,15.68,15.68,0,0,0-3-9.82A9.1,9.1,0,0,0,271,202.37Z" transform="translate(82.92 66.87)"/><path class="cls-7" d="M291,199.05h3.48V204a14.54,14.54,0,0,1,3.28-4.37,5.58,5.58,0,0,1,3.61-1.44,5.25,5.25,0,0,1,3,1.15L302.59,203a3.83,3.83,0,0,0-1.8-.59,4.43,4.43,0,0,0-3.28,1.79,12.28,12.28,0,0,0-2.41,5.55q-.63,2.9-.63,11.7V232.9H291Z" transform="translate(82.92 66.87)"/><path class="cls-7" d="M306,199.05h3.48V204a14.7,14.7,0,0,1,3.28-4.37,5.6,5.6,0,0,1,3.61-1.44,5.25,5.25,0,0,1,3,1.15L317.59,203a3.9,3.9,0,0,0-1.8-.59,4.45,4.45,0,0,0-3.29,1.79,12.39,12.39,0,0,0-2.41,5.55q-.63,2.9-.63,11.7V232.9H306Z" transform="translate(82.92 66.87)"/><path class="cls-7" d="M323.44,185.11a2.46,2.46,0,0,1,2,1,4,4,0,0,1,.82,2.56,4,4,0,0,1-.82,2.52,2.47,2.47,0,0,1-2,1.06,2.44,2.44,0,0,1-2-1.06,4,4,0,0,1-.83-2.52,4.05,4.05,0,0,1,.83-2.56A2.43,2.43,0,0,1,323.44,185.11Zm-1.69,13.94h3.41V232.9h-3.41Z" transform="translate(82.92 66.87)"/><path class="cls-7" d="M358.62,199.05V232.9h-3.36v-5.82a16.07,16.07,0,0,1-4.8,5,10.73,10.73,0,0,1-5.83,1.68q-5.62,0-9.61-5.21a20.28,20.28,0,0,1-4-12.68,19.89,19.89,0,0,1,4-12.51q4-5.19,9.66-5.19a10.38,10.38,0,0,1,5.91,1.77,15.14,15.14,0,0,1,4.63,5.32v-6.22ZM345,202.37a8.66,8.66,0,0,0-5.26,1.79,12.34,12.34,0,0,0-3.83,5A17,17,0,0,0,334.5,216a16.79,16.79,0,0,0,1.44,6.84,12.43,12.43,0,0,0,3.85,5.08,8.48,8.48,0,0,0,5.19,1.82,8.92,8.92,0,0,0,5.3-1.8,11.62,11.62,0,0,0,3.85-4.89,17,17,0,0,0,1.35-6.93,15.67,15.67,0,0,0-3-9.82A9.11,9.11,0,0,0,345,202.37Z" transform="translate(82.92 66.87)"/><path class="cls-7" d="M389.12,199.05h3.4v27a40.23,40.23,0,0,1-1,10.43,13.23,13.23,0,0,1-4.65,7.18,12.68,12.68,0,0,1-8,2.52,14.67,14.67,0,0,1-6.12-1.23,11.88,11.88,0,0,1-4.41-3.31,20.37,20.37,0,0,1-3.14-6.06H369a11.46,11.46,0,0,0,3.9,5,10.33,10.33,0,0,0,5.92,1.62,10.07,10.07,0,0,0,5.89-1.66,9.23,9.23,0,0,0,3.42-4.17c.68-1.67,1-4.37,1-8.11v-1.74a14,14,0,0,1-4.71,4.78,11.25,11.25,0,0,1-5.89,1.66,11.49,11.49,0,0,1-6.87-2.32,15,15,0,0,1-5-6.24,20.81,20.81,0,0,1-1.76-8.61,21.1,21.1,0,0,1,1.83-8.77,15.83,15.83,0,0,1,5.06-6.42,11.3,11.3,0,0,1,6.81-2.36,10.43,10.43,0,0,1,5.54,1.57,16.63,16.63,0,0,1,5,5.18Zm-10.06,3.32a9,9,0,0,0-5.38,1.79,12.05,12.05,0,0,0-3.89,5,16.6,16.6,0,0,0-1.41,6.83,14.23,14.23,0,0,0,2.92,9.21,9.71,9.71,0,0,0,15.13,0,14.86,14.86,0,0,0,2.86-9.49,16.81,16.81,0,0,0-1.32-6.83,11.27,11.27,0,0,0-3.72-4.74A8.72,8.72,0,0,0,379.06,202.37Z" transform="translate(82.92 66.87)"/><path class="cls-7" d="M422.12,221.67,425,223.6a20.59,20.59,0,0,1-3.26,5.72,12.92,12.92,0,0,1-4.17,3.32,11.81,11.81,0,0,1-5.23,1.13,11.58,11.58,0,0,1-10.14-5.43,22.67,22.67,0,0,1-.56-23.76q3.93-6.41,10.5-6.4,6.76,0,10.81,6.56a21.85,21.85,0,0,1,2.93,11.58H402A16.11,16.11,0,0,0,405,226a8.56,8.56,0,0,0,7,3.77,9.18,9.18,0,0,0,3.94-.9,10.16,10.16,0,0,0,3.25-2.39A20.49,20.49,0,0,0,422.12,221.67Zm0-9.12a16.68,16.68,0,0,0-2-5.57,10.09,10.09,0,0,0-3.45-3.36,8.71,8.71,0,0,0-4.51-1.27,8.6,8.6,0,0,0-6.7,3.2,15.79,15.79,0,0,0-3.1,7Z" transform="translate(82.92 66.87)"/><path class="cls-7" d="M446,199.05h3.4v5.84a15.64,15.64,0,0,1,3.66-4.72,8.74,8.74,0,0,1,5.43-2,7.38,7.38,0,0,1,3.65,1,8.13,8.13,0,0,1,2.83,2.57,15,15,0,0,1,1.9,4.58,15.36,15.36,0,0,1,4.25-6,8.49,8.49,0,0,1,5.49-2.07,7.33,7.33,0,0,1,4.85,1.77,10.46,10.46,0,0,1,3.11,4.94,33.32,33.32,0,0,1,1,9.53V232.9h-3.48V214.42a31,31,0,0,0-.6-7.49,6.71,6.71,0,0,0-2.08-3.28,5.21,5.21,0,0,0-3.5-1.24,6.57,6.57,0,0,0-4.53,1.87,10.82,10.82,0,0,0-3,5c-.63,2.08-1,5.54-1,10.4V232.9h-3.41V215.57a37.6,37.6,0,0,0-.59-8.32,7,7,0,0,0-2.08-3.52,5.14,5.14,0,0,0-3.53-1.32,6.52,6.52,0,0,0-4.42,1.82,10.64,10.64,0,0,0-3,4.9,33.09,33.09,0,0,0-1,9.43V232.9H446Z" transform="translate(82.92 66.87)"/><path class="cls-7" d="M515.07,221.67l2.87,1.93a20.35,20.35,0,0,1-3.27,5.72,12.88,12.88,0,0,1-4.16,3.32,11.83,11.83,0,0,1-5.24,1.13,11.56,11.56,0,0,1-10.13-5.43,22.61,22.61,0,0,1-.56-23.76q3.92-6.41,10.5-6.4,6.76,0,10.81,6.56a21.94,21.94,0,0,1,2.93,11.58H495a16,16,0,0,0,2.95,9.67,8.54,8.54,0,0,0,7,3.77,9.1,9.1,0,0,0,3.93-.9,10.09,10.09,0,0,0,3.26-2.39A20.49,20.49,0,0,0,515.07,221.67Zm0-9.12a16.67,16.67,0,0,0-2-5.57,10.09,10.09,0,0,0-3.45-3.36,8.62,8.62,0,0,0-11.21,1.93,15.9,15.9,0,0,0-3.09,7Z" transform="translate(82.92 66.87)"/><path class="cls-7" d="M551.6,186V232.9h-3.36v-5.82a16,16,0,0,1-4.81,5,10.69,10.69,0,0,1-5.82,1.68q-5.62,0-9.61-5.21a20.28,20.28,0,0,1-4-12.68,19.83,19.83,0,0,1,4-12.51q4-5.19,9.66-5.19a10.4,10.4,0,0,1,5.91,1.77,15.14,15.14,0,0,1,4.63,5.32V186ZM538,202.37a8.66,8.66,0,0,0-5.25,1.79,12.34,12.34,0,0,0-3.83,5,17.07,17.07,0,0,0,0,13.68,12.35,12.35,0,0,0,3.85,5.08,8.48,8.48,0,0,0,5.19,1.82,8.94,8.94,0,0,0,5.3-1.8,11.62,11.62,0,0,0,3.85-4.89,17,17,0,0,0,1.35-6.93,15.68,15.68,0,0,0-3-9.82A9.1,9.1,0,0,0,538,202.37Z" transform="translate(82.92 66.87)"/><path class="cls-7" d="M560.5,185.11a2.44,2.44,0,0,1,2,1,4.05,4.05,0,0,1,.83,2.56,4,4,0,0,1-.83,2.52,2.37,2.37,0,0,1-4,0,4.05,4.05,0,0,1-.82-2.52,4.11,4.11,0,0,1,.82-2.56A2.45,2.45,0,0,1,560.5,185.11Zm-1.69,13.94h3.4V232.9h-3.4Z" transform="translate(82.92 66.87)"/><path class="cls-7" d="M595.68,199.05V232.9h-3.36v-5.82a16,16,0,0,1-4.81,5,10.7,10.7,0,0,1-5.83,1.68q-5.62,0-9.6-5.21a20.29,20.29,0,0,1-4-12.68,19.84,19.84,0,0,1,4-12.51c2.67-3.46,5.9-5.19,9.66-5.19a10.37,10.37,0,0,1,5.9,1.77,15.16,15.16,0,0,1,4.64,5.32v-6.22Zm-13.62,3.32a8.61,8.61,0,0,0-5.25,1.79,12.26,12.26,0,0,0-3.83,5,17.13,17.13,0,0,0,0,13.68,12.45,12.45,0,0,0,3.86,5.08,8.48,8.48,0,0,0,5.19,1.82,9,9,0,0,0,5.3-1.8,11.7,11.7,0,0,0,3.85-4.89,17,17,0,0,0,1.35-6.93,15.68,15.68,0,0,0-3-9.82A9.1,9.1,0,0,0,582.06,202.37Z" transform="translate(82.92 66.87)"/><path class="cls-3" d="M45.74,175.27c-12.12,43.79,26.15,79,62.3,79.12,70.48.27,72.09-82.4,68.55-80-9.51,6.41-148,120.4-69-84.46,16.91-43.81-49.8,41.74-61.86,85.35" transform="translate(82.92 66.87)"/><path class="cls-7" d="M118.92,91.71A23.24,23.24,0,1,1,95.68,68.47a23.25,23.25,0,0,1,23.24,23.24" transform="translate(82.92 66.87)"/><path class="cls-7" d="M190.12,156.09c0,46.64-30.89,84.45-69,84.45s-99.92-109-69-84.45c9,7.12,148,120.4,69-84.46-16.9-43.81,69,37.82,69,84.46" transform="translate(82.92 66.87)"/><path class="cls-7" d="M144.63,50.17a23.24,23.24,0,1,1-23.24-23.24,23.24,23.24,0,0,1,23.24,23.24" transform="translate(82.92 66.87)"/></g></g></svg>